<?xml version="1.0" encoding="utf-8"?>
<!-- Generator: Adobe Illustrator 16.0.0, SVG Export Plug-In . SVG Version: 6.00 Build 0)  -->
<!DOCTYPE svg PUBLIC "-//W3C//DTD SVG 1.1//EN" "http://www.w3.org/Graphics/SVG/1.1/DTD/svg11.dtd">
<svg version="1.1" id="Layer_1" xmlns="http://www.w3.org/2000/svg" xmlns:xlink="http://www.w3.org/1999/xlink" x="0px" y="0px"
	 width="708.662px" height="708.662px" viewBox="0 0 708.662 708.662" enable-background="new 0 0 708.662 708.662"
	 xml:space="preserve">
<g>
	<path d="M183.952,472.273c17.315,9.914,333.043,159.55,333.043,159.55c1.605-4.469,5.38-14.09,6.917-20.11
		c10.988-43.038,6.333-89.047-16.037-125.186c-22.371-36.138-51.299-57.957-112.371-87.513
		c-44.976-21.77-51.499-24.313-109.238-52.885c-87.243-43.172-117.891-42.816-131.383-90.381c-8.039-28.339,2.07-47.31,7.139-58.28
		c-18.74,14.622-37.555,32.658-49.836,61.369c-15.239,35.626-18.605,54.348-13.592,92.258
		C105.531,403.557,140.895,447.621,183.952,472.273z"/>
	<path d="M322.95,151.421c0.82,0.142,1.625,0.298,2.438,0.447c45.674,6.29,86.752,26.981,118.491,57.36
		c-17.752-57.598,44.552-52.109,149.979-58.338c-28.025-2.723-86.299-6.751-146.38-19.32
		c-37.975-7.943-68.692-28.078-108.657-66.676C356.924,99.052,389.113,124.508,322.95,151.421z"/>
</g>
</svg>
