<svg xmlns="http://www.w3.org/2000/svg" version="1.1" viewBox="-5.0 -10.0 110.0 135.0">
 <path d="m70.711 40.367v6.543c-2.9648 0.18359-5.5039 2.0195-6.6992 4.7109-0.91797-0.33594-1.8633-0.51953-2.875-0.51953-2.1406 0-4.1602 0.82422-5.6875 2.3555l-3.332 3.332c-2.2617 2.2617-2.9062 5.6289-1.8359 8.5039-0.79688 0.36719-1.5273 0.82422-2.1719 1.4375h-33.242c-3.5469 0-6.3906-2.9062-6.3906-6.4531v-19.879c6.9414 1.1016 14.496 1.7109 21.285 2.0508v0.36719c0 3.9453 3.1797 7.1875 7.125 7.1875h5.4453c3.9141 0 7.1562-3.2422 7.1562-7.1875v-0.42969c6.7578-0.27344 14.254-0.88672 21.227-2.0195z"/>
 <path d="m36.902 30.258h5.4414c3.918 0 7.1094 3.1523 7.1445 7.1055 9.9727-0.39844 18.062-1.4492 24.371-2.7188 0.87109-0.14453 1.4883-0.94141 1.4883-1.8477v-9.9727c0-3.5547-2.9023-6.418-6.418-6.418h-14.246v-4.707c0-5.0703-4.125-9.1953-9.1953-9.1953h-11.82c-5.0703 0-9.1953 4.125-9.1953 9.1953v4.707h-14.223c-3.5547 0-6.418 2.8633-6.418 6.418v9.9727c0 0.90625 0.61719 1.707 1.4883 1.8867 6.3125 1.2305 14.434 2.2852 24.445 2.6836 0.035156-3.9531 3.1914-7.1055 7.1445-7.1055zm-5.1758-18.562c0-1.0703 0.87109-1.9414 1.9414-1.9414h11.82c1.0703 0 1.9414 0.87109 1.9414 1.9414v4.707h-15.703z"/>
 <path d="m36.91 35.32h5.418c1.1484 0 2.0781 0.92969 2.0781 2.0781v5.4219c0 1.1445-0.92969 2.0742-2.0742 2.0742h-5.4258c-1.1445 0-2.0742-0.92969-2.0742-2.0742v-5.4219c0-1.1484 0.93359-2.0781 2.0781-2.0781z"/>
 <path d="m94.27 70.465-4.1172-0.55469c-0.55469-1.2227-0.66797-1.5586-1.1133-2.7812l2.4492-3.3359c0.66797-0.89062 0.55469-2.1133-0.22266-2.8906l-3.3359-3.3359c-0.77734-0.77734-2.0039-0.89062-2.8906-0.22266l-3.3359 2.4492c-1.2227-0.55469-1.5586-0.66797-2.7812-1.1133l-0.55469-4.1172c-0.10938-1.1133-1.1133-1.8906-2.2266-1.8906h-4.7852c-1.1133 0-2.0039 0.77734-2.2266 1.8906l-0.55469 4.1172c-1.2227 0.55469-1.5586 0.66797-2.7812 1.1133l-3.3359-2.4492c-0.89062-0.66797-2.1133-0.55469-2.8906 0.22266l-3.3359 3.3359c-0.77734 0.77734-0.89062 2.0039-0.22266 2.8906l2.4492 3.3359c-0.55469 1.2227-0.66797 1.5586-1.1133 2.7812l-4.1172 0.55469c-1.1133 0.10938-1.8906 1.1133-1.8906 2.2266v4.7852c0 1.1133 0.77734 2.0039 1.8906 2.2266l4.1172 0.55469c0.55469 1.2227 0.66797 1.5586 1.1133 2.7812l-2.4492 3.3359c-0.66797 0.89062-0.55469 2.1133 0.22266 2.8906l3.3359 3.3359c0.77734 0.77734 2.0039 0.89063 2.8906 0.22266l3.3359-2.4492c1.2227 0.55469 1.5586 0.66797 2.7812 1.1133l0.55469 4.1172c0.10938 1.1133 1.1133 1.8906 2.2266 1.8906h4.7852c1.1133 0 2.0039-0.77734 2.2266-1.8906l0.55469-4.1172c1.2227-0.55469 1.5586-0.66797 2.7812-1.1133l3.3359 2.4492c0.89063 0.66797 2.1133 0.55469 2.8906-0.22266l3.3359-3.3359c0.77734-0.77734 0.89062-2.0039 0.22266-2.8906l-2.4492-3.3359c0.55469-1.2227 0.66797-1.5586 1.1133-2.7812l4.1172-0.55469c1.1133-0.10938 1.8906-1.1133 1.8906-2.2266v-4.7852c0.10938-1.2227-0.77734-2.1133-1.8906-2.2266zm-20.469 12.977c-4.6797 0-8.5273-3.8477-8.5273-8.5273 0-4.6797 3.8477-8.5273 8.5273-8.5273 4.6797 0 8.5273 3.8477 8.5273 8.5273 0 4.6797-3.8477 8.5273-8.5273 8.5273z"/>
<text x="0.0" y="117.5" font-size="5.0" font-weight="bold" font-family="Arbeit Regular, Helvetica, Arial-Unicode, Arial, Sans-serif" fill="#000000">Created by Adrien Coquet</text><text x="0.0" y="122.5" font-size="5.0" font-weight="bold" font-family="Arbeit Regular, Helvetica, Arial-Unicode, Arial, Sans-serif" fill="#000000">from Noun Project</text></svg>